<?xml version="1.0" encoding="iso-8859-1"?>
<!-- Generator: Adobe Illustrator 16.0.0, SVG Export Plug-In . SVG Version: 6.00 Build 0)  -->
<!DOCTYPE svg PUBLIC "-//W3C//DTD SVG 1.1//EN" "http://www.w3.org/Graphics/SVG/1.1/DTD/svg11.dtd">
<svg version="1.1" id="Capa_1" xmlns="http://www.w3.org/2000/svg" xmlns:xlink="http://www.w3.org/1999/xlink" x="0px" y="0px"
	 width="31.459px" height="31.46px" viewBox="0 0 31.459 31.46" style="enable-background:new 0 0 31.459 31.46;"
	 xml:space="preserve">
<g>
	<path d="M8.946,4.912l-0.364-0.25l17.209-1.868L25.77,2.601L8.335,4.493L8.034,4.285l17.409-1.903l-0.021-0.193L7.789,4.118
		l-0.334-0.23l17.679-1.956l-0.021-0.193L7.208,3.719L6.835,3.462l17.907-1.991l-0.021-0.192L6.592,3.294L6.187,3.016l0.579-0.059
		L25.19,0.953L24.514,0L4.368,2.135v0.292v0.778v25.659l3.649,2.575v0.021l19.072-1.935l0.004-26.453L8.946,4.912z M23.981,14.762
		l-11.365,1.236v-6.4l11.365-1.237V14.762z"/>
</g>
<g>
</g>
<g>
</g>
<g>
</g>
<g>
</g>
<g>
</g>
<g>
</g>
<g>
</g>
<g>
</g>
<g>
</g>
<g>
</g>
<g>
</g>
<g>
</g>
<g>
</g>
<g>
</g>
<g>
</g>
</svg>
